PathFileType	4	(X/Y/Z)	12_2_23_p1_0-298.trc
DataRate	CameraRate	NumFrames	NumMarkers	Units	OrigDataRate	OrigDataStartFrame	OrigNumFrames
60.0	60.0	7	27	m	60.0	149	299
Frame#	Time	RHip			RKnee			RAnkle			RBigToe			RSmallToe			RHeel			LHip			LKnee			LAnkle			LBigToe			LSmallToe			LHeel			Neck			Head			Nose			RShoulder			RElbow			RWrist			RThumb			RIndex			RPinky			LShoulder			LElbow			LWrist			LThumb			LIndex			LPinky			
		X1	Y1	Z1	X2	Y2	Z2	X3	Y3	Z3	X4	Y4	Z4	X5	Y5	Z5	X6	Y6	Z6	X7	Y7	Z7	X8	Y8	Z8	X9	Y9	Z9	X10	Y10	Z10	X11	Y11	Z11	X12	Y12	Z12	X13	Y13	Z13	X14	Y14	Z14	X15	Y15	Z15	X16	Y16	Z16	X17	Y17	Z17	X18	Y18	Z18	X19	Y19	Z19	X20	Y20	Z20	X21	Y21	Z21	X22	Y22	Z22	X23	Y23	Z23	X24	Y24	Z24	X25	Y25	Z25	X26	Y26	Z26	X27	Y27	Z27	
149	2.4833333333333334	0.4448602483085286	0.4534368157103984	1.032191992171115	0.48859091778373076	0.49531351762141207	1.5064680431232227	0.48653145767923245	0.6249391307271833	1.9510911842935068	0.47426063854624567	0.3782752302938702	1.9264001016386991	0.5262258138974167	0.4296528202947058	1.9339166293809256	0.47450083493753414	0.6704783706225244	2.0259680305242553	0.23847715777082173	0.47237343877887217	1.064875724979106	0.2637399096266912	0.5154163212713088	1.5407220492962441	0.3275659478644111	0.5849053205874728	1.9499227698307862	0.33190311439238535	0.37989157685856373	1.9401466995229044	0.26751708825856685	0.4319445900595049	1.9481837931777077	0.3439807678338711	0.6435084276788587	2.0087858841537702	0.2678651338664199	0.543262128384365	0.38927908042536186	0.2465480483765197	0.6033542738579126	0.1632298819165522	0.25355703699335763	0.471189912899776	0.25036645844815436	0.4376699783137482	0.5424045284643121	0.4456824866678643	0.5982964060946874	0.40340668822979847	0.252545012371062	0.4704028165929886	0.4272532294220228	0.06676579370118957	0.3947839625943123	0.47389132700229303	0.011168201565030823	0.40451332461334333	0.46702006949565644	-0.00361893057032237	0.4514503620240686	0.4334479418768595	-0.010483867192946254	0.11874570193506655	0.5356842437846934	0.4865192820845498	-0.0277162282700948	0.38283701452673763	0.6405455059354496	0.17412952503661772	0.3504276716253533	0.5808178479214672	0.27548462302648236	0.3210848047412238	0.565984527264029	0.2994896166564956	0.30317823143979344	0.5408453843197052	0.26021943491612703	0.3149277067094795	0.6022954995868612
150	2.5	0.4449277937956983	0.4534760107790787	1.0321858472078713	0.48863435619658446	0.4955110424168718	1.506432663328484	0.4889883308444367	0.6243600274425918	1.960735148432803	0.4742269177155419	0.3782615523101073	1.9263761755838038	0.521999374229534	0.4183448808359279	1.9267828224415195	0.47453867198695543	0.670289063198932	2.0259407199735353	0.23789801677290584	0.4735344030928295	1.0615779205127893	0.2633393765725207	0.5157215541509556	1.5452521491084772	0.32670948815850637	0.5871080818160777	1.9463214580182184	0.3318967559647801	0.37987986178611016	1.9401526574591637	0.26738268862351966	0.43183805457037505	1.948069814097654	0.34405719491312187	0.6436995567888552	2.0088868329364598	0.2645875094281053	0.531376068425133	0.38833977660606467	0.23883388104929396	0.5892353167259488	0.16368131784421838	0.2534565318662495	0.4707366134552429	0.2504986138018657	0.4375674735129807	0.542600955043673	0.4456602494250043	0.5885946989587572	0.39257451459139026	0.24609856727767965	0.4630798650335263	0.4406492771434383	0.04290932628641222	0.38425939091995853	0.4657703139391343	-0.0022764189895483748	0.39208840603071043	0.4717272769282336	-0.015259829709322182	0.4389695740419147	0.45616432811069574	-0.026527093230727952	0.11867842063114716	0.5358271022855599	0.4866758559278445	-0.025680829753536305	0.39330071171960673	0.6426992841368956	0.1725801574318673	0.3256301311371564	0.5798508079868064	0.2804327562760495	0.299194158044647	0.5662961616710016	0.29991341014949596	0.302172087570806	0.5480349751801676	0.2614431706640963	0.30329802677070966	0.6067010293448104
151	2.5166666666666666	0.4450114815715892	0.45317467601469485	1.0319874816183146	0.4921008935818367	0.4811295560684921	1.4980226386543827	0.4895083242321252	0.623688144731687	1.9554225335568685	0.47419617082340515	0.3781063708514368	1.9262558464853938	0.5221564825317666	0.41896874912409465	1.927089214458176	0.4693761303270757	0.6547976949093248	2.0164332085380337	0.23791019982244654	0.4734459713763595	1.0614615296322851	0.26379367310633656	0.5154944699201345	1.5408170968426134	0.3266910408498581	0.5870969562045782	1.9464129545142317	0.3318856811407219	0.37996930250953626	1.940255881905935	0.26738148981880955	0.43168419641976263	1.948122590068625	0.34396778457460003	0.6432154236575273	2.008784148636728	0.26389325029485006	0.5308011793842613	0.38449685820626167	0.23466363355236342	0.6027362828132332	0.16467168357934278	0.25293125590795645	0.470166207455529	0.24697324314299332	0.437610480007637	0.5668374811723565	0.4492610778998719	0.5751460380077443	0.43179909627863267	0.24100830978483312	0.46008838432369786	0.4405049099880255	0.024086786060714325	0.3868177516868108	0.4712460448536204	-0.022894203715749968	0.38872148031701953	0.47504957443134915	-0.04770191419416536	0.4400886702904869	0.4321055809103666	-0.051470871261469896	0.118519993673581	0.5361600881583913	0.4869397868678853	-0.02591399301347448	0.39350589259412444	0.6467953883112993	0.17317860177180247	0.3244207198975917	0.5829675890795588	0.2729845070717844	0.2960865753566539	0.5696913711094375	0.2939404900573249	0.28914857689240736	0.554000899125494	0.2606001067146382	0.3014293911196178	0.6031429907096988
152	2.533333333333333	0.44502615873575024	0.4532528022600814	1.0319744028797457	0.4924636999720718	0.4808976355847341	1.4936382475823362	0.48952444381367877	0.6235365592258598	1.9554509602997636	0.4700901739017685	0.36667506216401496	1.9189404259917846	0.5220462435818772	0.4187053272636935	1.9269489792907437	0.47126534345809956	0.6568963349281731	2.0233548115497175	0.23863391670266387	0.4719749695320856	1.0648439442273048	0.2637719149685554	0.5154853514580121	1.5405770942431731	0.3267323620505771	0.5872342356838175	1.9463323628030287	0.3316751611738582	0.3798637238589836	1.9401113974061395	0.2638552405544582	0.44518055798748546	1.9536857588438181	0.3439210855363364	0.6430415624736139	2.0085551692384405	0.26388291742722947	0.5304542765805699	0.3844030552891257	0.23046278689144398	0.6152715797427506	0.16569336301906382	0.24973007709962988	0.4687836605633423	0.2506763888756279	0.4336989009557062	0.5564461888514787	0.4447738524488974	0.5711420451793716	0.44639929414875235	0.23563818425930735	0.4519480057913299	0.429696979547928	0.016781577895736876	0.3803118901171951	0.486946979716282	-0.04860192661368112	0.38322221054964456	0.47539892035722575	-0.0672388608855455	0.43407080379263635	0.4465791223154823	-0.07227752818154266	0.11471994946925815	0.5332901464217569	0.4871255767820278	-0.025313738458101052	0.39509892452146633	0.6576436377746819	0.17874459131088383	0.312027079611679	0.587389186759091	0.27702354779946975	0.2958319987601446	0.5711810045675599	0.2989023406257694	0.29121700960201874	0.5608664922761356	0.2650451602896073	0.29109200492778714	0.6038329819722322
153	2.55	0.44519198010617994	0.4531848084098908	1.0319374356072706	0.4924963063289671	0.4810282519943025	1.493713672378588	0.48945125410860313	0.6234970007510547	1.955329872447061	0.47008561818737193	0.3666475036271699	1.9188351881733419	0.522737923047648	0.41662543878603897	1.9303530208284585	0.4693102443549961	0.6535907732294038	2.0157460124804203	0.24313343179621694	0.4587986977397418	1.0593816635416837	0.2624421140902444	0.5143004744234705	1.5350065257467944	0.3187082768167475	0.5888852919212444	1.9488021103944986	0.3315410608907965	0.37982982365437834	1.9401673027297923	0.26382850892057985	0.4448268286997353	1.953654283352376	0.3396417543035317	0.6296831054053315	2.0006595238915352	0.26373721751506035	0.5309677852558736	0.38128916125998896	0.22700361900337668	0.6019503040178987	0.16187902067109675	0.2502620372779133	0.46094354158245177	0.24980096206432725	0.43309192337550084	0.557457143919414	0.4408941990903849	0.5620187607269057	0.44921842616577506	0.2231201395207625	0.44943485852363446	0.43108935925631	0.0006734634081408956	0.3729592341018147	0.49431876973326494	-0.0636138816698229	0.381975366690034	0.4767385894964326	-0.07966562010729943	0.4324213691727578	0.4258142623029263	-0.0810181687664231	0.11465119337956128	0.5330165500354459	0.4871144388542797	-0.029546202185777363	0.4059817306995219	0.6647619285388215	0.17884651355866238	0.3117671443417301	0.5910212665737906	0.281873618791953	0.29778931343739934	0.5783216241292208	0.30009767930310144	0.2892009846094758	0.5680025697873462	0.2650462091127749	0.3041821469177569	0.6100662117606785
154	2.566666666666667	0.4491871708803548	0.46370069179238743	1.0352532207061598	0.4924639190382197	0.4808788185399705	1.4933642116375307	0.48794244818009824	0.6220063832725088	1.9489691163946135	0.47005819654919756	0.3667172327787908	1.918843557857692	0.5226582119069987	0.41654352700129044	1.9302196693124263	0.46994004284454644	0.6532729182240455	2.0101321038384534	0.24321914615653123	0.4586841082221865	1.0591823981160053	0.2624305468858873	0.514404830397716	1.5349412751164704	0.3228241446452498	0.5740511431569099	1.938230565476456	0.33155495671796054	0.3799179103347584	1.9402049998754811	0.263757602233615	0.44483936577783595	1.9536305588032161	0.3428808059830998	0.6441589793171767	2.0047101472257385	0.2594357459621226	0.5438289850218956	0.38336812978272916	0.2283152770838165	0.5769209604515403	0.16062461998995076	0.24595887373044184	0.45949921473193245	0.2466978785994053	0.4322904641927492	0.55680916320822	0.43707588598937475	0.5546562083241566	0.450323996811601	0.20339422016134914	0.44739981533430384	0.4317424671139324	-0.009060888757506819	0.36692162410023893	0.47661512151782187	-0.0781768168568168	0.3707712586364827	0.47866590448922947	-0.08667086909426319	0.42544881366029785	0.42289737045455594	-0.09275095200549618	0.11516580965499564	0.5338958285364279	0.49063714342249526	-0.027338547089265874	0.418640634570421	0.6743204652783341	0.18374170632826617	0.3000661207379309	0.5918228009177499	0.28687470972772	0.3002206282584965	0.5826691635378715	0.299518893512689	0.28072952761995923	0.5800327148915744	0.261951436576547	0.3033105017280258	0.6113439006241554
155	2.5833333333333335	0.44913103158362055	0.463496584610269	1.0350636661527781	0.49273549844290926	0.4803109337475741	1.4890527106176323	0.4880163638795341	0.6221884769760674	1.949031724414618	0.4700024390014264	0.3664424869841001	1.9187784895482038	0.5225538889901591	0.415723414668241	1.9298656959215097	0.47531449787525293	0.6683790428180987	2.019451852969138	0.24646082477673387	0.46195373543947366	1.0560847175056491	0.26671719694161744	0.5163680287650325	1.5351428912606417	0.3227289101956676	0.5740904100662508	1.937956350065671	0.33167345911230545	0.38002157435085904	1.9402870461430313	0.26310454880464895	0.44528541227272955	1.9582141500143917	0.3428968683139516	0.6443044569763149	2.0046440012781215	0.25934433247904387	0.5436752492699317	0.38320057480706066	0.22703622786903896	0.6033010156696638	0.162770956745536	0.2449509769564342	0.45947857065491127	0.24004436076065777	0.43093041387373043	0.5566062379775847	0.42968345643774225	0.5481616225815542	0.46337283576819843	0.18461913061266658	0.4384642222821082	0.4358040402392483	-0.023700032274427615	0.36557457758853684	0.45670616842946965	-0.09045713139728423	0.3681752825624557	0.46225883774081344	-0.1131417106669227	0.42142829558772876	0.43542684272314286	-0.09888904308762589	0.11497126213674394	0.5342683450522967	0.49106836543566845	-0.026713718553629844	0.41979933194739766	0.6784887040449963	0.17194361096427302	0.3207467244906752	0.6049037114617444	0.27996706973527224	0.3123884195918477	0.5927834983958037	0.2967432858371073	0.29368934747987613	0.5862262840995817	0.2581730952153121	0.3292776303022229	0.6177949538040388
